<?xml version="1.0" encoding="utf-8"?>
<!-- Generator: Adobe Illustrator 21.1.0, SVG Export Plug-In . SVG Version: 6.00 Build 0)  -->
<svg version="1.1" id="Layer_1" xmlns="http://www.w3.org/2000/svg" xmlns:xlink="http://www.w3.org/1999/xlink" x="0px" y="0px"
	 viewBox="0 0 137.8 108.2" style="enable-background:new 0 0 137.8 108.2;" xml:space="preserve">
<style type="text/css">
	.st0{fill:#FFFFFF;stroke:#000000;stroke-width:0.9498;stroke-miterlimit:10;}
	.st1{fill:#FFFFFF;stroke:#000000;stroke-width:0.75;stroke-miterlimit:10;}
	.st2{fill:none;stroke:#000000;stroke-miterlimit:10;}
	.st3{fill:#FFFFFF;stroke:#000000;stroke-width:0.75;stroke-linecap:round;stroke-linejoin:round;stroke-miterlimit:10;}
	.st4{fill:#FFFFFF;stroke:#000000;stroke-miterlimit:10;}
	.st5{fill:none;stroke:#000000;stroke-width:0.8583;stroke-miterlimit:10;}
	.st6{fill:none;stroke:#000000;stroke-width:0.8313;stroke-miterlimit:10;}
</style>
<g>
	<rect x="99.9" y="14.4" class="st1" width="6.5" height="21"/>
	<path class="st1" d="M103.4,0.4L103.4,0.4c-5.4,0-9.8,4.4-9.8,9.8v9.8c0,2.4,1.9,4.3,4.3,4.3c0.9,0,1.8-0.3,2.5-0.8
		c0.7,0.5,1.5,0.8,2.5,0.8c1.2,0,2.3-0.5,3.1-1.3c0.8,0.8,1.9,1.3,3.1,1.3c2.4,0,4.3-1.9,4.3-4.3v-9.8
		C113.2,4.8,108.8,0.4,103.4,0.4z"/>
</g>
<path class="st0" d="M78,24.5c0.5-0.4,0.9-0.9,0.9-1.4c0-1.2-1.5-2.1-3.3-2.1c-0.6,0-1.2,0.1-1.6,0.3c-0.6-0.6-1.6-1-2.8-1
	c-0.9,0-1.6,0.2-2.2,0.5c-0.6-0.3-1.4-0.5-2.2-0.5c-0.9,0-1.6,0.2-2.2,0.5c-0.6-0.3-1.4-0.5-2.2-0.5c-0.6,0-1.2,0.1-1.7,0.3
	c-0.5-0.2-1.1-0.3-1.7-0.3c-0.9,0-1.6,0.2-2.2,0.5c-0.6-0.3-1.4-0.5-2.2-0.5c-1,0-1.9,0.3-2.6,0.8c-0.3,0-0.5-0.1-0.8-0.1
	c-1.8,0-3.3,0.9-3.3,2.1c0,0.5,0.3,1,0.9,1.4c-0.5,0.4-0.9,0.9-0.9,1.4s0.3,1,0.9,1.4c-0.5,0.4-0.9,0.9-0.9,1.4c0,0.4,0.2,0.7,0.5,1
	c-0.3,0.3-0.5,0.7-0.5,1c0,0.5,0.3,1,0.9,1.4c-0.5,0.4-0.9,0.9-0.9,1.4c0,1.2,1.5,2.1,3.3,2.1c0.3,0,0.5,0,0.8-0.1
	c0.6,0.5,1.5,0.8,2.6,0.8c0.9,0,1.6-0.2,2.2-0.5c0.6,0.3,1.4,0.5,2.2,0.5c0.6,0,1.2-0.1,1.7-0.3c0.5,0.2,1.1,0.3,1.7,0.3
	c0.9,0,1.6-0.2,2.2-0.5c0.6,0.3,1.4,0.5,2.2,0.5c0.9,0,1.6-0.2,2.2-0.5c0.6,0.3,1.4,0.5,2.2,0.5c1.2,0,2.2-0.4,2.8-1
	c0.5,0.2,1,0.3,1.6,0.3c1.8,0,3.3-0.9,3.3-2.1c0-0.5-0.3-1-0.9-1.4c0.5-0.4,0.9-0.9,0.9-1.4c0-0.4-0.2-0.7-0.5-1
	c0.3-0.3,0.5-0.7,0.5-1c0-0.5-0.3-1-0.9-1.4c0.5-0.4,0.9-0.9,0.9-1.4S78.5,24.9,78,24.5z"/>
<g>
	<rect x="91.3" y="6.4" class="st1" width="1.8" height="21"/>
	<path class="st1" d="M88,13.2c2.2,1.3,2.9,5.4,2.9,5.4s-3.9,1.4-6.2,0.1s-2.8-3.3-1.9-4.8C83.8,12.4,85.8,11.9,88,13.2z"/>
	<line class="st3" x1="90.7" y1="18.6" x2="86" y2="15.7"/>
	<path class="st1" d="M99.3,13.5c-2.5,0.6-5.9-1.8-5.9-1.8s1.8-3.8,4.3-4.4s4.3,0.4,4.7,2.1C102.9,11.1,101.8,12.8,99.3,13.5z"/>
	<line class="st3" x1="93.6" y1="11.5" x2="98.9" y2="10.3"/>
</g>
<path class="st1" d="M124.4,35.4H31.8c-6.3,0-11.5,5.1-11.5,11.5v16H12c-5.3,0-9.6,4.3-9.6,9.6v18.9h133.5V62.9v0v-16
	C135.9,40.5,130.7,35.4,124.4,35.4z"/>
<path class="st1" d="M95.6,24.5c0.3-0.4,0.5-0.9,0.5-1.4c0-1.2-0.9-2.1-2.1-2.1c-0.4,0-0.7,0.1-1,0.3c-0.4-0.6-1-1-1.8-1
	c-0.5,0-1,0.2-1.4,0.5c-0.4-0.3-0.9-0.5-1.4-0.5c-0.5,0-1,0.2-1.4,0.5c-0.4-0.3-0.9-0.5-1.4-0.5c-0.4,0-0.7,0.1-1,0.3
	c-0.3-0.2-0.7-0.3-1-0.3c-0.5,0-1,0.2-1.4,0.5c-0.4-0.3-0.9-0.5-1.4-0.5c-0.6,0-1.2,0.3-1.6,0.8c-0.2,0-0.3-0.1-0.5-0.1
	c-1.2,0-2.1,0.9-2.1,2.1c0,0.5,0.2,1,0.5,1.4c-0.3,0.4-0.5,0.9-0.5,1.4s0.2,1,0.5,1.4c-0.3,0.4-0.5,0.9-0.5,1.4c0,0.4,0.1,0.7,0.3,1
	c-0.2,0.3-0.3,0.7-0.3,1c0,0.5,0.2,1,0.5,1.4c-0.3,0.4-0.5,0.9-0.5,1.4c0,1.2,0.9,2.1,2.1,2.1c0.2,0,0.3,0,0.5-0.1
	c0.4,0.5,1,0.8,1.6,0.8c0.5,0,1-0.2,1.4-0.5c0.4,0.3,0.9,0.5,1.4,0.5c0.4,0,0.7-0.1,1-0.3c0.3,0.2,0.7,0.3,1,0.3
	c0.5,0,1-0.2,1.4-0.5c0.4,0.3,0.9,0.5,1.4,0.5c0.5,0,1-0.2,1.4-0.5c0.4,0.3,0.9,0.5,1.4,0.5c0.7,0,1.4-0.4,1.8-1
	c0.3,0.2,0.6,0.3,1,0.3c1.2,0,2.1-0.9,2.1-2.1c0-0.5-0.2-1-0.5-1.4c0.3-0.4,0.5-0.9,0.5-1.4c0-0.4-0.1-0.7-0.3-1
	c0.2-0.3,0.3-0.7,0.3-1c0-0.5-0.2-1-0.5-1.4c0.3-0.4,0.5-0.9,0.5-1.4S95.9,24.9,95.6,24.5z"/>
<g>
	<rect x="43.9" y="14.4" class="st1" width="6.5" height="21"/>
	<path class="st1" d="M47.4,0.4L47.4,0.4c-5.4,0-9.8,4.4-9.8,9.8v9.8c0,2.4,1.9,4.3,4.3,4.3c0.9,0,1.8-0.3,2.5-0.8
		c0.7,0.5,1.5,0.8,2.5,0.8c1.2,0,2.3-0.5,3.1-1.3c0.8,0.8,1.9,1.3,3.1,1.3c2.4,0,4.3-1.9,4.3-4.3v-9.8C57.2,4.8,52.8,0.4,47.4,0.4z"
		/>
</g>
<g>
	<rect x="39.3" y="4.4" class="st1" width="1.8" height="21"/>
	<path class="st1" d="M36,11.2c2.2,1.3,2.9,5.4,2.9,5.4s-3.9,1.4-6.2,0.1s-2.8-3.3-1.9-4.8C31.8,10.4,33.8,9.9,36,11.2z"/>
	<line class="st3" x1="38.7" y1="16.6" x2="34" y2="13.7"/>
	<path class="st1" d="M47.3,11.5c-2.5,0.6-5.9-1.8-5.9-1.8s1.8-3.8,4.3-4.4s4.3,0.4,4.7,2.1S49.8,10.8,47.3,11.5z"/>
	<line class="st3" x1="41.6" y1="9.5" x2="46.9" y2="8.3"/>
</g>
<g>
	<rect x="73.9" y="14.4" class="st1" width="6.5" height="21"/>
	<path class="st1" d="M77.4,0.4L77.4,0.4c-5.4,0-9.8,4.4-9.8,9.8v9.8c0,2.4,1.9,4.3,4.3,4.3c0.9,0,1.8-0.3,2.5-0.8
		c0.7,0.5,1.5,0.8,2.5,0.8c1.2,0,2.3-0.5,3.1-1.3c0.8,0.8,1.9,1.3,3.1,1.3c2.4,0,4.3-1.9,4.3-4.3v-9.8C87.2,4.8,82.8,0.4,77.4,0.4z"
		/>
</g>
<g>
	<rect x="66.3" y="15.4" class="st1" width="1.8" height="21"/>
	<path class="st1" d="M63,22.2c2.2,1.3,2.9,5.4,2.9,5.4s-3.9,1.4-6.2,0.1s-2.8-3.3-1.9-4.8C58.8,21.4,60.8,20.9,63,22.2z"/>
	<line class="st3" x1="65.7" y1="27.6" x2="61" y2="24.7"/>
	<path class="st1" d="M74.3,22.5c-2.5,0.6-5.9-1.8-5.9-1.8s1.8-3.8,4.3-4.4c2.5-0.6,4.3,0.4,4.7,2.1C77.9,20.1,76.8,21.8,74.3,22.5z
		"/>
	<line class="st3" x1="68.6" y1="20.5" x2="73.9" y2="19.3"/>
</g>
<path class="st1" d="M121.6,24.5c0.3-0.4,0.5-0.9,0.5-1.4c0-1.2-0.9-2.1-2.1-2.1c-0.4,0-0.7,0.1-1,0.3c-0.4-0.6-1-1-1.8-1
	c-0.5,0-1,0.2-1.4,0.5c-0.4-0.3-0.9-0.5-1.4-0.5c-0.5,0-1,0.2-1.4,0.5c-0.4-0.3-0.9-0.5-1.4-0.5c-0.4,0-0.7,0.1-1,0.3
	c-0.3-0.2-0.7-0.3-1-0.3c-0.5,0-1,0.2-1.4,0.5c-0.4-0.3-0.9-0.5-1.4-0.5c-0.6,0-1.2,0.3-1.6,0.8c-0.2,0-0.3-0.1-0.5-0.1
	c-1.2,0-2.1,0.9-2.1,2.1c0,0.5,0.2,1,0.5,1.4c-0.3,0.4-0.5,0.9-0.5,1.4s0.2,1,0.5,1.4c-0.3,0.4-0.5,0.9-0.5,1.4c0,0.4,0.1,0.7,0.3,1
	c-0.2,0.3-0.3,0.7-0.3,1c0,0.5,0.2,1,0.5,1.4c-0.3,0.4-0.5,0.9-0.5,1.4c0,1.2,0.9,2.1,2.1,2.1c0.2,0,0.3,0,0.5-0.1
	c0.4,0.5,1,0.8,1.6,0.8c0.5,0,1-0.2,1.4-0.5c0.4,0.3,0.9,0.5,1.4,0.5c0.4,0,0.7-0.1,1-0.3c0.3,0.2,0.7,0.3,1,0.3
	c0.5,0,1-0.2,1.4-0.5c0.4,0.3,0.9,0.5,1.4,0.5c0.5,0,1-0.2,1.4-0.5c0.4,0.3,0.9,0.5,1.4,0.5c0.7,0,1.4-0.4,1.8-1
	c0.3,0.2,0.6,0.3,1,0.3c1.2,0,2.1-0.9,2.1-2.1c0-0.5-0.2-1-0.5-1.4c0.3-0.4,0.5-0.9,0.5-1.4c0-0.4-0.1-0.7-0.3-1
	c0.2-0.3,0.3-0.7,0.3-1c0-0.5-0.2-1-0.5-1.4c0.3-0.4,0.5-0.9,0.5-1.4S121.9,24.9,121.6,24.5z"/>
<path class="st1" d="M43.6,24.5c0.3-0.4,0.5-0.9,0.5-1.4c0-1.2-0.9-2.1-2.1-2.1c-0.4,0-0.7,0.1-1,0.3c-0.4-0.6-1-1-1.8-1
	c-0.5,0-1,0.2-1.4,0.5c-0.4-0.3-0.9-0.5-1.4-0.5c-0.5,0-1,0.2-1.4,0.5c-0.4-0.3-0.9-0.5-1.4-0.5c-0.4,0-0.7,0.1-1,0.3
	c-0.3-0.2-0.7-0.3-1-0.3c-0.5,0-1,0.2-1.4,0.5c-0.4-0.3-0.9-0.5-1.4-0.5c-0.6,0-1.2,0.3-1.6,0.8c-0.2,0-0.3-0.1-0.5-0.1
	c-1.2,0-2.1,0.9-2.1,2.1c0,0.5,0.2,1,0.5,1.4c-0.3,0.4-0.5,0.9-0.5,1.4s0.2,1,0.5,1.4c-0.3,0.4-0.5,0.9-0.5,1.4c0,0.4,0.1,0.7,0.3,1
	c-0.2,0.3-0.3,0.7-0.3,1c0,0.5,0.2,1,0.5,1.4c-0.3,0.4-0.5,0.9-0.5,1.4c0,1.2,0.9,2.1,2.1,2.1c0.2,0,0.3,0,0.5-0.1
	c0.4,0.5,1,0.8,1.6,0.8c0.5,0,1-0.2,1.4-0.5c0.4,0.3,0.9,0.5,1.4,0.5c0.4,0,0.7-0.1,1-0.3c0.3,0.2,0.7,0.3,1,0.3
	c0.5,0,1-0.2,1.4-0.5c0.4,0.3,0.9,0.5,1.4,0.5c0.5,0,1-0.2,1.4-0.5c0.4,0.3,0.9,0.5,1.4,0.5c0.7,0,1.4-0.4,1.8-1
	c0.3,0.2,0.6,0.3,1,0.3c1.2,0,2.1-0.9,2.1-2.1c0-0.5-0.2-1-0.5-1.4c0.3-0.4,0.5-0.9,0.5-1.4c0-0.4-0.1-0.7-0.3-1
	c0.2-0.3,0.3-0.7,0.3-1c0-0.5-0.2-1-0.5-1.4c0.3-0.4,0.5-0.9,0.5-1.4S43.9,24.9,43.6,24.5z"/>
<path class="st1" d="M134.9,94.9H2.9c-1.4,0-2.5-1.1-2.5-2.5l0,0c0-1.4,1.1-2.5,2.5-2.5h132c1.4,0,2.5,1.1,2.5,2.5l0,0
	C137.4,93.7,136.2,94.9,134.9,94.9z"/>
<g>
	<rect x="125.3" y="14.4" class="st1" width="1.8" height="21"/>
	<path class="st1" d="M122,21.2c2.2,1.3,2.9,5.4,2.9,5.4s-3.9,1.4-6.2,0.1s-2.8-3.3-1.9-4.8C117.8,20.4,119.8,19.9,122,21.2z"/>
	<line class="st3" x1="124.7" y1="26.6" x2="120" y2="23.7"/>
	<path class="st1" d="M133.3,21.5c-2.5,0.6-5.9-1.8-5.9-1.8s1.8-3.8,4.3-4.4c2.5-0.6,4.3,0.4,4.7,2.1
		C136.9,19.1,135.8,20.8,133.3,21.5z"/>
	<line class="st3" x1="127.6" y1="19.5" x2="132.9" y2="18.3"/>
</g>
<path class="st1" d="M134.9,38.9h-112c-1.4,0-2.5-1.1-2.5-2.5v0c0-1.4,1.1-2.5,2.5-2.5h112c1.4,0,2.5,1.1,2.5,2.5v0
	C137.4,37.8,136.2,38.9,134.9,38.9z"/>
<circle class="st1" cx="27.4" cy="94.9" r="13"/>
<circle class="st1" cx="95.4" cy="94.9" r="13"/>
<rect x="20.4" y="45.9" class="st1" width="37" height="17"/>
<rect x="64.4" y="45.9" class="st1" width="16" height="17"/>
<rect x="87.4" y="45.9" class="st1" width="16" height="17"/>
<rect x="108.4" y="45.9" class="st1" width="16" height="17"/>
<circle class="st1" cx="95.4" cy="94.9" r="5"/>
<circle class="st1" cx="27.4" cy="94.9" r="5"/>
<circle class="st1" cx="10.4" cy="72.9" r="3"/>
<rect x="2.4" y="78.9" class="st1" width="8" height="8"/>
</svg>
