<svg xmlns="http://www.w3.org/2000/svg" viewBox="0 0 151.81 92.71"><defs><style>.a{fill:#3a478f;}</style></defs><title>Artboard 31 copy</title><path class="a" d="M144.63,63.82a.92.92,0,0,1-.92-.92V45.65a7.58,7.58,0,0,0-7.57-7.57h-34a.92.92,0,0,1-.92-.92V13.22a7.58,7.58,0,0,0-7.57-7.57H18.78a.92.92,0,0,1,0-1.84H93.62a9.41,9.41,0,0,1,9.4,9.4v23h33.12a9.41,9.41,0,0,1,9.4,9.4V62.9A.92.92,0,0,1,144.63,63.82Z"/><path class="a" d="M63.57,65.83a.55.55,0,0,1-.43-.21l-1.62-2.09-2.23,2.15a.55.55,0,0,1-.76-.79l2.67-2.57a.56.56,0,0,1,.42-.15.55.55,0,0,1,.4.21l2,2.57a.55.55,0,0,1-.43.89Z"/><path class="a" d="M95.77,15.14l-4,3.24a10.39,10.39,0,0,0-6.51-2.15,7.09,7.09,0,0,0-3.54.77,2.36,2.36,0,0,0-1.35,2.13,1.81,1.81,0,0,0,.49,1.28,4.48,4.48,0,0,0,1.61,1q1.12.45,3.3,1.09A16.36,16.36,0,0,1,92,25.3,5.66,5.66,0,0,1,94,29.89a7.94,7.94,0,0,1-1.35,4.33,9.78,9.78,0,0,1-4.44,3.48,19.81,19.81,0,0,1-8,1.37,20.32,20.32,0,0,1-6.82-1,15.19,15.19,0,0,1-4.91-2.77l4.33-3.46a11.17,11.17,0,0,0,7.4,2.56,8.38,8.38,0,0,0,4.26-.94,2.84,2.84,0,0,0,1.61-2.52A2.51,2.51,0,0,0,85,28.78a13.88,13.88,0,0,0-4-1.64,16.23,16.23,0,0,1-6.54-2.94,5.61,5.61,0,0,1-2-4.41,6.4,6.4,0,0,1,1.37-3.88,9.78,9.78,0,0,1,4.23-3,18.6,18.6,0,0,1,7.1-1.19Q91.77,11.71,95.77,15.14Z"/><path class="a" d="M29.85,56.76a11.09,11.09,0,0,1-5.42,3.58l5.7,11H22.42l-4.61-9.94-2.94,0-1.62,10H6.19L10.44,45.2h9.78q5.57,0,8.36,1.62a5.36,5.36,0,0,1,2.79,5A8.41,8.41,0,0,1,29.85,56.76Zm-11.16.3q2.94,0,4.15-1.45A5.11,5.11,0,0,0,24,52.24a2.21,2.21,0,0,0-1.12-2.05,7,7,0,0,0-3.44-.66H16.8l-1.23,7.53Z"/><path class="a" d="M57.52,48.39q3,3.19,3,9A26.5,26.5,0,0,1,59,66.32a16.3,16.3,0,0,1-5.09,7.28,14,14,0,0,1-9.21,2.93q-5.57,0-8.6-3.21t-3-9a26,26,0,0,1,1.56-8.83,16.6,16.6,0,0,1,5.11-7.3,13.94,13.94,0,0,1,9.21-3Q54.49,45.2,57.52,48.39Zm-14,4.4a14.45,14.45,0,0,0-2.5,5.75,31.69,31.69,0,0,0-.7,6.53q0,6.29,4.83,6.29a5.76,5.76,0,0,0,4.87-2.41,14.48,14.48,0,0,0,2.5-5.8,32.54,32.54,0,0,0,.7-6.61,7.38,7.38,0,0,0-1.21-4.68,4.39,4.39,0,0,0-3.62-1.49A5.76,5.76,0,0,0,43.56,52.79Z"/><path class="a" d="M88,48.39q3,3.19,3,9a26.5,26.5,0,0,1-1.54,8.88,16.3,16.3,0,0,1-5.09,7.28,14,14,0,0,1-9.21,2.93q-5.57,0-8.6-3.21t-3-9a26,26,0,0,1,1.56-8.83,16.6,16.6,0,0,1,5.11-7.3,13.94,13.94,0,0,1,9.21-3Q85,45.2,88,48.39Zm-14,4.4a14.45,14.45,0,0,0-2.5,5.75,31.69,31.69,0,0,0-.7,6.53q0,6.29,4.83,6.29a5.76,5.76,0,0,0,4.87-2.41,14.48,14.48,0,0,0,2.5-5.8,32.54,32.54,0,0,0,.7-6.61,7.38,7.38,0,0,0-1.21-4.68,4.39,4.39,0,0,0-3.62-1.49A5.76,5.76,0,0,0,74.06,52.79Z"/><path class="a" d="M107.25,49.95,103.78,71.3H96.68l3.51-21.35H92.42l.79-4.74h22.94l-1.54,4.74Z"/><path class="a" d="M139.06,48l-3.77,3.24a9.43,9.43,0,0,0-6.14-2.15,6.37,6.37,0,0,0-3.33.77A2.38,2.38,0,0,0,124.54,52a1.88,1.88,0,0,0,.46,1.28,4.2,4.2,0,0,0,1.51,1q1.05.45,3.11,1.09a15,15,0,0,1,5.83,2.82,5.81,5.81,0,0,1,2,4.59,8.28,8.28,0,0,1-1.27,4.33A9.34,9.34,0,0,1,132,70.56a17.73,17.73,0,0,1-7.52,1.37,18.16,18.16,0,0,1-6.43-1,14.13,14.13,0,0,1-4.63-2.77l4.08-3.46a10.17,10.17,0,0,0,7,2.56,7.53,7.53,0,0,0,4-.94A2.86,2.86,0,0,0,130,63.77a2.56,2.56,0,0,0-1.05-2.13A12.7,12.7,0,0,0,125.2,60,14.93,14.93,0,0,1,119,57.06a5.76,5.76,0,0,1-1.91-4.41,6.65,6.65,0,0,1,1.29-3.88,9.27,9.27,0,0,1,4-3,16.63,16.63,0,0,1,6.69-1.19Q135.29,44.56,139.06,48Z"/><path class="a" d="M35.29,26.34A4.37,4.37,0,0,1,37,30.12a6.9,6.9,0,0,1-3.56,6q-3.56,2.28-11.61,2.28H11.59L16.1,12.35h9.45q12.19,0,12.19,5.91a5.13,5.13,0,0,1-2,4.24,11.35,11.35,0,0,1-5,2.16A10.32,10.32,0,0,1,35.29,26.34Zm-7.47,6.49a3.74,3.74,0,0,0,1.49-3.16q0-2.79-4.84-2.79h-3.4L19.82,34h2.7Q26.34,34,27.83,32.83Zm.84-11.13A3.38,3.38,0,0,0,30,18.94a1.76,1.76,0,0,0-1.09-1.71,8.13,8.13,0,0,0-3.28-.51H22.8l-1,6.06h2.79A6.51,6.51,0,0,0,28.66,21.71Z"/><path class="a" d="M62.58,36.52Q59,39.08,53,39.08q-5.44,0-8.24-2.07A6.62,6.62,0,0,1,42,31.4a10.18,10.18,0,0,1,.14-1.69l3-17.36h7.49l-3,17.24a8.67,8.67,0,0,0-.14,1.51,3.11,3.11,0,0,0,1,2.54,4.91,4.91,0,0,0,3.07.85,5.85,5.85,0,0,0,4-1.24,6.35,6.35,0,0,0,1.88-3.77l3-17.13H70l-3,17.47A10.19,10.19,0,0,1,62.58,36.52Z"/><path class="a" d="M84.22,88.93a.59.59,0,0,1-.42-.17l-6.91-6.91a.59.59,0,0,1-.17-.42v-5a.6.6,0,0,1,1.19,0v4.76l6.74,6.74a.6.6,0,0,1-.42,1Z"/><path class="a" d="M78.14,87a.59.59,0,0,1-.42-.17l-5.49-5.49a.59.59,0,0,1-.17-.42V75.63a.6.6,0,0,1,1.19,0v5l5.31,5.31a.6.6,0,0,1-.42,1Z"/><path class="a" d="M86.18,85.45a.55.55,0,0,1-.39-.16L80.4,79.9a.55.55,0,0,1-.16-.39V75.63a.55.55,0,0,1,1.1,0v3.65l5.23,5.23a.55.55,0,0,1-.39.94Z"/><path class="a" d="M38.46,88.93a.6.6,0,0,1-.42-1l6.74-6.74V76.41a.6.6,0,1,1,1.19,0v5a.59.59,0,0,1-.17.42l-6.91,6.91A.59.59,0,0,1,38.46,88.93Z"/><path class="a" d="M44.54,87a.6.6,0,0,1-.42-1l5.31-5.31v-5a.6.6,0,1,1,1.19,0v5.24a.59.59,0,0,1-.17.42L45,86.78A.59.59,0,0,1,44.54,87Z"/><path class="a" d="M36.49,85.45a.55.55,0,0,1-.39-.94l5.23-5.23V75.63a.55.55,0,0,1,1.1,0v3.88a.55.55,0,0,1-.16.39l-5.39,5.39A.55.55,0,0,1,36.49,85.45Z"/></svg>